<svg xmlns="http://www.w3.org/2000/svg" xmlns:xlink="http://www.w3.org/1999/xlink" width="2000" zoomAndPan="magnify" viewBox="0 0 1500 1499.999933" height="2000" preserveAspectRatio="xMidYMid meet" version="1.0"><defs><g/><clipPath id="e092c898fb"><path d="M 210 478 L 736 478 L 736 1058 L 210 1058 Z M 210 478 " clip-rule="nonzero"/></clipPath><clipPath id="ef7b2a9859"><path d="M 352 1057.269531 L 200.09375 560.214844 L 583.824219 442.945312 L 735.730469 940 Z M 352 1057.269531 " clip-rule="nonzero"/></clipPath><clipPath id="b90d864034"><path d="M 62 300 L 127 300 L 127 347 L 62 347 Z M 62 300 " clip-rule="nonzero"/></clipPath><clipPath id="f76322a2e5"><path d="M 142 579.269531 L -9.90625 82.214844 L 373.824219 -35.054688 L 525.730469 462 Z M 142 579.269531 " clip-rule="nonzero"/></clipPath><clipPath id="f6fee74043"><path d="M 525.5625 462.050781 L 373.65625 -35.003906 L -10.074219 82.265625 L 141.832031 579.324219 Z M 525.5625 462.050781 " clip-rule="nonzero"/></clipPath><clipPath id="2ff21c2ef5"><path d="M 122 287 L 347 287 L 347 512 L 122 512 Z M 122 287 " clip-rule="nonzero"/></clipPath><clipPath id="d2f2e1365a"><path d="M 142 579.269531 L -9.90625 82.214844 L 373.824219 -35.054688 L 525.730469 462 Z M 142 579.269531 " clip-rule="nonzero"/></clipPath><clipPath id="f050c044c5"><path d="M 525.5625 462.050781 L 373.65625 -35.003906 L -10.074219 82.265625 L 141.832031 579.324219 Z M 525.5625 462.050781 " clip-rule="nonzero"/></clipPath><clipPath id="752a9b94e4"><path d="M 122 288 L 347 288 L 347 512 L 122 512 Z M 122 288 " clip-rule="nonzero"/></clipPath><clipPath id="5bea05177e"><path d="M 142 579.269531 L -9.90625 82.214844 L 373.824219 -35.054688 L 525.730469 462 Z M 142 579.269531 " clip-rule="nonzero"/></clipPath><clipPath id="9384bdc94c"><path d="M 525.5625 462.050781 L 373.65625 -35.003906 L -10.074219 82.265625 L 141.832031 579.324219 Z M 525.5625 462.050781 " clip-rule="nonzero"/></clipPath><clipPath id="c35400fa65"><path d="M 116 26 L 386 26 L 386 321 L 116 321 Z M 116 26 " clip-rule="nonzero"/></clipPath><clipPath id="a5d860d431"><path d="M 142 579.269531 L -9.90625 82.214844 L 373.824219 -35.054688 L 525.730469 462 Z M 142 579.269531 " clip-rule="nonzero"/></clipPath><clipPath id="e65fae2a5c"><path d="M 525.5625 462.050781 L 373.65625 -35.003906 L -10.074219 82.265625 L 141.832031 579.324219 Z M 525.5625 462.050781 " clip-rule="nonzero"/></clipPath><clipPath id="42301decd2"><path d="M 124 26 L 386 26 L 386 321 L 124 321 Z M 124 26 " clip-rule="nonzero"/></clipPath><clipPath id="a462a2daa3"><path d="M 142 579.269531 L -9.90625 82.214844 L 373.824219 -35.054688 L 525.730469 462 Z M 142 579.269531 " clip-rule="nonzero"/></clipPath><clipPath id="fa3b3fe6f6"><path d="M 525.5625 462.050781 L 373.65625 -35.003906 L -10.074219 82.265625 L 141.832031 579.324219 Z M 525.5625 462.050781 " clip-rule="nonzero"/></clipPath><clipPath id="9d77250f59"><path d="M 56 20 L 391 20 L 391 518 L 56 518 Z M 56 20 " clip-rule="nonzero"/></clipPath><clipPath id="5f8f34bf22"><path d="M 142 579.269531 L -9.90625 82.214844 L 373.824219 -35.054688 L 525.730469 462 Z M 142 579.269531 " clip-rule="nonzero"/></clipPath><clipPath id="c8ddac751a"><path d="M 525.5625 462.050781 L 373.65625 -35.003906 L -10.074219 82.265625 L 141.832031 579.324219 Z M 525.5625 462.050781 " clip-rule="nonzero"/></clipPath><clipPath id="d124fa45f7"><rect x="0" width="526" y="0" height="580"/></clipPath><clipPath id="ed627b7352"><rect x="0" width="428" y="0" height="194"/></clipPath><clipPath id="4f9c1b1efd"><rect x="0" width="367" y="0" height="191"/></clipPath></defs><g clip-path="url(#e092c898fb)"><g clip-path="url(#ef7b2a9859)"><g transform="matrix(1, 0, 0, 1, 210, 478)"><g clip-path="url(#d124fa45f7)"><g clip-path="url(#b90d864034)"><g clip-path="url(#f76322a2e5)"><g clip-path="url(#f6fee74043)"><path fill="#fdf7f2" d="M 77.234375 346.960938 L 62.984375 300.332031 C 79.027344 311.273438 111.667969 299.234375 126.011719 306.5625 C 118.113281 322.261719 84.191406 328.496094 77.234375 346.960938 Z M 77.234375 346.960938 " fill-opacity="1" fill-rule="nonzero"/></g></g></g><g clip-path="url(#2ff21c2ef5)"><g clip-path="url(#d2f2e1365a)"><g clip-path="url(#f050c044c5)"><path fill="#9dcd5a" d="M 297.632812 374.09375 C 308.574219 443.386719 346.222656 510.226562 346.222656 510.226562 C 346.222656 510.226562 228.40625 527.925781 161.796875 448.773438 C 161.796875 448.773438 106.507812 391.851562 126.617188 305 C 190.019531 265.445312 284.601562 294.414062 297.632812 374.09375 Z M 297.632812 374.09375 " fill-opacity="1" fill-rule="nonzero"/></g></g></g><g clip-path="url(#752a9b94e4)"><g clip-path="url(#5bea05177e)"><g clip-path="url(#9384bdc94c)"><path fill="#81a969" d="M 346.25 510.316406 C 346.25 510.316406 336.746094 511.742188 321.644531 511.929688 C 309.632812 486.46875 291.578125 443.167969 284.539062 398.566406 C 267.652344 315.933594 160.378906 334.640625 122.6875 329.820312 C 123.304688 321.855469 124.613281 313.582031 126.5 304.9375 C 181.859375 270.300781 282.652344 289.003906 297.515625 374.03125 C 308.601562 443.476562 346.25 510.316406 346.25 510.316406 Z M 346.25 510.316406 " fill-opacity="1" fill-rule="nonzero"/></g></g></g><g clip-path="url(#c35400fa65)"><g clip-path="url(#a5d860d431)"><g clip-path="url(#e65fae2a5c)"><path fill="#9dcd5a" d="M 125.652344 305.390625 C 232.753906 351.5 329.648438 282.714844 335.613281 203.039062 C 343.351562 114.355469 385.070312 26.703125 385.070312 26.703125 C 385.070312 26.703125 234.558594 14.730469 157.460938 120.574219 C 157.460938 120.574219 92.613281 197.28125 125.652344 305.390625 Z M 125.652344 305.390625 " fill-opacity="1" fill-rule="nonzero"/></g></g></g><g clip-path="url(#42301decd2)"><g clip-path="url(#a462a2daa3)"><g clip-path="url(#fa3b3fe6f6)"><path fill="#81a969" d="M 385.070312 26.703125 C 385.070312 26.703125 343.378906 114.445312 335.613281 203.039062 C 329.585938 282.832031 232.753906 351.5 125.652344 305.390625 C 125.160156 303.769531 124.691406 302.242188 124.285156 300.59375 C 221.871094 328.445312 305.613281 263.976562 311.257812 190.007812 C 317.199219 121.855469 343.195312 54.265625 354.964844 26.75 C 373.363281 25.753906 385.070312 26.703125 385.070312 26.703125 Z M 385.070312 26.703125 " fill-opacity="1" fill-rule="nonzero"/></g></g></g><g clip-path="url(#9d77250f59)"><g clip-path="url(#5f8f34bf22)"><g clip-path="url(#c8ddac751a)"><path fill="#fdf7f2" d="M 390.355469 29.160156 C 390.355469 29.160156 349.09375 116.375 341.515625 203.335938 C 338.171875 247.46875 308.601562 287.902344 265.390625 309.472656 C 285.824219 325.769531 299.816406 348.363281 303.449219 373.136719 C 311.894531 419.769531 328.519531 465.476562 351.320312 507.226562 C 353.179688 511.382812 351.179688 515.144531 347.082031 515.90625 C 347.082031 515.90625 226.5625 534.429688 157.488281 452.6875 C 157.222656 452.472656 108.332031 401.664062 117.457031 322.992188 C 113.1875 325.773438 108.511719 328.1875 104.046875 330.632812 C 93.804688 336.421875 85.082031 342.335938 82.625 348.792969 C 80.679688 354.015625 73.148438 353.855469 71.5 348.453125 L 57.25 301.824219 C 55.625 296.515625 61.570312 292.136719 66.167969 295.261719 C 71.875 299.125 82.796875 299.429688 94.667969 298.65625 C 102.300781 298.195312 110.15625 297.171875 117.402344 298.007812 C 89.609375 191.9375 152.570312 116.789062 152.785156 116.527344 C 232.359375 8.15625 385.53125 20.792969 385.53125 20.792969 C 389.691406 21.195312 392.148438 25.367188 390.355469 29.160156 Z M 376.097656 32.433594 C 353.96875 31.519531 230.464844 30.289062 162.246094 123.972656 C 162.183594 124.089844 162.121094 124.207031 161.96875 124.351562 C 161.96875 124.351562 101.726562 195.515625 129.679688 297.601562 C 137.019531 294.574219 150.429688 288.210938 164.0625 277.746094 C 160.945312 264.328125 158.007812 252.136719 156.433594 238.933594 C 155.78125 232.933594 155.3125 227.859375 156.351562 223.210938 C 157.628906 217.410156 165.769531 216.988281 167.683594 222.605469 C 168.011719 223.683594 168.074219 224.847656 167.808594 225.910156 C 167.507812 227.183594 167.414062 232.035156 168.109375 237.53125 C 169.558594 248.703125 171.628906 258.699219 174.132812 269.15625 C 186.972656 257.0625 198.71875 241.070312 204.394531 220.339844 C 212.796875 189.230469 218.808594 169.28125 224.703125 155.078125 C 230.597656 140.875 236.800781 132.191406 244.878906 124.800781 C 248.019531 121.871094 253.136719 123.160156 254.464844 127.183594 C 255.242188 129.410156 254.527344 131.890625 252.847656 133.488281 C 245.839844 139.859375 241.058594 146.441406 235.546875 159.640625 C 230.664062 171.367188 225.414062 188.328125 218.371094 213.90625 C 221.125 213.257812 224.214844 212.414062 227.632812 211.367188 C 237.925781 208.324219 250.007812 203.742188 256.289062 199.167969 C 259.476562 196.714844 264.171875 198.234375 265.417969 201.988281 C 266.25 204.390625 265.316406 207.136719 263.222656 208.660156 C 254.457031 215.082031 241.722656 219.464844 230.984375 222.648438 C 224.113281 224.648438 218.332031 226.023438 214.738281 226.824219 C 206.953125 252.234375 191.273438 270.808594 175.308594 283.953125 C 165.253906 291.949219 153.480469 299.484375 142.507812 304.804688 C 247.027344 337.625 322.765625 264.675781 329.953125 202.539062 C 329.953125 202.539062 329.953125 202.539062 329.925781 202.449219 C 336.585938 124.726562 367.390625 51.925781 376.097656 32.433594 Z M 336.902344 505.136719 C 327.550781 487.425781 301.066406 433.609375 291.847656 375.109375 C 284.988281 349.449219 273.207031 330.214844 253.222656 315.0625 C 230.035156 324.214844 203.675781 328.136719 175.648438 324.992188 C 186.167969 333.980469 195.996094 345.839844 202.152344 361.476562 C 205.058594 361.96875 209.414062 362.703125 214.480469 363.8125 C 223.242188 365.761719 233.507812 368.429688 241.070312 373.207031 C 242.273438 373.921875 243.109375 375.042969 243.609375 376.367188 C 245.414062 381.621094 239.523438 386.179688 234.863281 383.171875 C 229.996094 380.132812 220.21875 377.117188 212.015625 375.394531 C 210.117188 374.988281 208.339844 374.644531 206.769531 374.335938 C 213.332031 392.902344 218.199219 405.292969 222.480469 413.828125 C 227.472656 423.71875 231.371094 428.433594 237.09375 432.984375 C 238 433.691406 238.691406 434.660156 239.136719 435.804688 C 240.933594 441.355469 234.355469 445.925781 229.867188 442.179688 C 222.976562 436.707031 217.488281 430.019531 211.984375 419.101562 C 206.628906 408.335938 200.960938 393.335938 192.855469 370.027344 C 188.03125 355.851562 178.289062 342.984375 168.09375 334.089844 C 166.886719 341.742188 165.828125 349.546875 165.433594 356.953125 C 165.265625 361.234375 165.621094 364.964844 165.839844 365.683594 C 166.773438 368.746094 165.050781 372.125 161.992188 373.0625 C 158.929688 373.996094 155.550781 372.273438 154.613281 369.214844 C 153.402344 365.253906 153.5625 361.269531 153.746094 356.390625 C 154.394531 345.953125 155.734375 336.488281 157.511719 326.203125 C 147.984375 321.4375 139.722656 317.269531 131.050781 314.015625 C 116.269531 393.824219 166.253906 444.988281 166.253906 444.988281 C 166.371094 445.050781 166.429688 445.230469 166.546875 445.292969 C 223.269531 512.699219 315.886719 507.230469 336.902344 505.136719 Z M 114.199219 310.402344 C 108.90625 310.152344 102.652344 310.292969 95.585938 310.679688 C 87.859375 311.171875 79.785156 311.472656 72.140625 309.972656 L 79.429688 333.824219 C 84.867188 328.425781 91.757812 324.25 98.402344 320.546875 C 104.625 317.070312 109.890625 313.691406 114.199219 310.402344 Z M 114.199219 310.402344 " fill-opacity="1" fill-rule="nonzero"/></g></g></g></g></g></g></g><g transform="matrix(1, 0, 0, 1, 575, 529)"><g clip-path="url(#ed627b7352)"><g fill="#464a4e" fill-opacity="1"><g transform="translate(0.106019, 150.712317)"><g><path d="M 63.1875 -85.640625 L 63.1875 -77.75 C 63.1875 -76.5 63.023438 -75.585938 62.703125 -75.015625 C 62.378906 -74.453125 61.675781 -74.171875 60.59375 -74.171875 L 45.46875 -74.171875 C 44.488281 -74.171875 43.820312 -74.425781 43.46875 -74.9375 C 43.113281 -75.457031 42.9375 -76.285156 42.9375 -77.421875 L 42.9375 -84.984375 C 42.9375 -86.609375 42.609375 -88.164062 41.953125 -89.65625 C 41.304688 -91.15625 40.359375 -92.378906 39.109375 -93.328125 C 37.867188 -94.273438 36.351562 -94.75 34.5625 -94.75 C 31.90625 -94.75 29.765625 -93.785156 28.140625 -91.859375 C 26.515625 -89.929688 25.703125 -87.695312 25.703125 -85.15625 L 25.703125 -27.65625 C 25.703125 -25.96875 26.050781 -24.363281 26.75 -22.84375 C 27.457031 -21.332031 28.472656 -20.113281 29.796875 -19.1875 C 31.128906 -18.269531 32.71875 -17.8125 34.5625 -17.8125 C 37.539062 -17.8125 39.75 -18.8125 41.1875 -20.8125 C 42.625 -22.820312 43.34375 -25.101562 43.34375 -27.65625 L 43.34375 -37.328125 C 43.34375 -38.578125 43.519531 -39.414062 43.875 -39.84375 C 44.226562 -40.28125 44.863281 -40.5 45.78125 -40.5 L 61 -40.5 C 61.914062 -40.5 62.59375 -40.304688 63.03125 -39.921875 C 63.46875 -39.546875 63.6875 -38.738281 63.6875 -37.5 L 63.6875 -26.4375 C 63.6875 -20.582031 62.367188 -15.539062 59.734375 -11.3125 C 57.109375 -7.082031 53.582031 -3.835938 49.15625 -1.578125 C 44.738281 0.671875 39.820312 1.796875 34.40625 1.796875 C 30.332031 1.796875 26.46875 1.160156 22.8125 -0.109375 C 19.15625 -1.390625 15.914062 -3.25 13.09375 -5.6875 C 10.269531 -8.132812 8.054688 -11.101562 6.453125 -14.59375 C 4.859375 -18.09375 4.0625 -22.039062 4.0625 -26.4375 L 4.0625 -86.046875 C 4.0625 -90.054688 4.804688 -93.78125 6.296875 -97.21875 C 7.796875 -100.664062 9.898438 -103.660156 12.609375 -106.203125 C 15.316406 -108.753906 18.515625 -110.734375 22.203125 -112.140625 C 25.890625 -113.554688 29.957031 -114.265625 34.40625 -114.265625 C 39.332031 -114.265625 43.613281 -113.453125 47.25 -111.828125 C 50.882812 -110.203125 53.878906 -108.03125 56.234375 -105.3125 C 58.597656 -102.601562 60.347656 -99.539062 61.484375 -96.125 C 62.617188 -92.707031 63.1875 -89.210938 63.1875 -85.640625 Z M 63.1875 -85.640625 "/></g></g></g><g fill="#464a4e" fill-opacity="1"><g transform="translate(86.359009, 150.712317)"><g><path d="M 54.984375 0 L 8.625 0 C 6.78125 0 5.859375 -1.03125 5.859375 -3.09375 L 5.859375 -109.390625 C 5.859375 -111.503906 6.753906 -112.5625 8.546875 -112.5625 L 24.8125 -112.5625 C 26.59375 -112.5625 27.484375 -111.503906 27.484375 -109.390625 L 27.484375 -19.59375 L 54.984375 -19.59375 C 56.492188 -19.59375 57.25 -18.671875 57.25 -16.828125 L 57.25 -2.921875 C 57.25 -0.972656 56.492188 0 54.984375 0 Z M 54.984375 0 "/></g></g></g><g fill="#464a4e" fill-opacity="1"><g transform="translate(164.886451, 150.712317)"><g><path d="M 27.484375 -19.59375 L 57.65625 -19.59375 C 58.3125 -19.59375 58.867188 -19.363281 59.328125 -18.90625 C 59.785156 -18.445312 60.015625 -17.753906 60.015625 -16.828125 L 60.015625 -2.84375 C 60.015625 -1.863281 59.785156 -1.144531 59.328125 -0.6875 C 58.867188 -0.226562 58.3125 0 57.65625 0 L 8.625 0 C 6.78125 0 5.859375 -1.03125 5.859375 -3.09375 L 5.859375 -109.390625 C 5.859375 -111.503906 6.78125 -112.5625 8.625 -112.5625 L 57.25 -112.5625 C 58.769531 -112.5625 59.53125 -111.554688 59.53125 -109.546875 L 59.53125 -95.71875 C 59.53125 -93.769531 58.769531 -92.796875 57.25 -92.796875 L 27.484375 -92.796875 L 27.484375 -66.6875 L 51.234375 -66.6875 C 51.941406 -66.6875 52.550781 -66.46875 53.0625 -66.03125 C 53.582031 -65.601562 53.84375 -64.875 53.84375 -63.84375 L 53.84375 -49.9375 C 53.84375 -48.957031 53.597656 -48.25 53.109375 -47.8125 C 52.617188 -47.382812 51.992188 -47.171875 51.234375 -47.171875 L 27.484375 -47.171875 Z M 27.484375 -19.59375 "/></g></g></g><g fill="#464a4e" fill-opacity="1"><g transform="translate(246.260147, 150.712317)"><g><path d="M 26.84375 -84.90625 L 26.84375 -45.78125 L 44.15625 -45.78125 L 44.15625 -84.90625 C 44.15625 -87.457031 43.394531 -89.722656 41.875 -91.703125 C 40.363281 -93.679688 38.253906 -94.671875 35.546875 -94.671875 C 32.773438 -94.671875 30.628906 -93.679688 29.109375 -91.703125 C 27.597656 -89.722656 26.84375 -87.457031 26.84375 -84.90625 Z M 65.875 -86.125 L 65.875 -3.25 C 65.875 -2.4375 65.671875 -1.691406 65.265625 -1.015625 C 64.859375 -0.335938 64.195312 0 63.28125 0 L 46.765625 0 C 45.953125 0 45.3125 -0.320312 44.84375 -0.96875 C 44.382812 -1.625 44.15625 -2.382812 44.15625 -3.25 L 44.15625 -26.84375 L 26.84375 -26.84375 L 26.84375 -3.171875 C 26.84375 -2.304688 26.675781 -1.5625 26.34375 -0.9375 C 26.019531 -0.3125 25.375 0 24.40625 0 L 7.234375 0 C 6.640625 0 6.140625 -0.3125 5.734375 -0.9375 C 5.328125 -1.5625 5.125 -2.304688 5.125 -3.171875 L 5.125 -86.125 C 5.125 -90.03125 5.9375 -93.691406 7.5625 -97.109375 C 9.1875 -100.523438 11.394531 -103.519531 14.1875 -106.09375 C 16.976562 -108.664062 20.203125 -110.679688 23.859375 -112.140625 C 27.523438 -113.609375 31.390625 -114.34375 35.453125 -114.34375 C 39.523438 -114.34375 43.390625 -113.609375 47.046875 -112.140625 C 50.703125 -110.679688 53.941406 -108.664062 56.765625 -106.09375 C 59.585938 -103.519531 61.8125 -100.523438 63.4375 -97.109375 C 65.0625 -93.691406 65.875 -90.03125 65.875 -86.125 Z M 65.875 -86.125 "/></g></g></g><g fill="#464a4e" fill-opacity="1"><g transform="translate(336.741857, 150.712317)"><g><path d="M 63.28125 0 L 46.765625 0 C 45.953125 0 45.3125 -0.320312 44.84375 -0.96875 C 44.382812 -1.625 44.15625 -2.382812 44.15625 -3.25 L 44.15625 -84.90625 C 44.15625 -87.457031 43.394531 -89.722656 41.875 -91.703125 C 40.363281 -93.679688 38.253906 -94.671875 35.546875 -94.671875 C 32.773438 -94.671875 30.628906 -93.679688 29.109375 -91.703125 C 27.597656 -89.722656 26.84375 -87.457031 26.84375 -84.90625 L 26.84375 -3.171875 C 26.84375 -2.304688 26.664062 -1.5625 26.3125 -0.9375 C 25.957031 -0.3125 25.320312 0 24.40625 0 L 7.234375 0 C 6.640625 0 6.140625 -0.3125 5.734375 -0.9375 C 5.328125 -1.5625 5.125 -2.304688 5.125 -3.171875 L 5.125 -86.125 C 5.125 -90.03125 5.9375 -93.691406 7.5625 -97.109375 C 9.1875 -100.523438 11.394531 -103.519531 14.1875 -106.09375 C 16.976562 -108.664062 20.203125 -110.679688 23.859375 -112.140625 C 27.523438 -113.609375 31.390625 -114.34375 35.453125 -114.34375 C 39.523438 -114.34375 43.390625 -113.609375 47.046875 -112.140625 C 50.703125 -110.679688 53.941406 -108.664062 56.765625 -106.09375 C 59.585938 -103.519531 61.8125 -100.523438 63.4375 -97.109375 C 65.0625 -93.691406 65.875 -90.03125 65.875 -86.125 L 65.875 -3.25 C 65.875 -2.4375 65.671875 -1.691406 65.265625 -1.015625 C 64.859375 -0.335938 64.195312 0 63.28125 0 Z M 63.28125 0 "/></g></g></g></g></g><g transform="matrix(1, 0, 0, 1, 626, 680)"><g clip-path="url(#4f9c1b1efd)"><g fill="#81a969" fill-opacity="1"><g transform="translate(0.375311, 148.496812)"><g><path d="M 26.40625 -83.515625 L 26.40625 -45.046875 L 43.4375 -45.046875 L 43.4375 -83.515625 C 43.4375 -86.023438 42.6875 -88.253906 41.1875 -90.203125 C 39.695312 -92.148438 37.617188 -93.125 34.953125 -93.125 C 32.234375 -93.125 30.128906 -92.148438 28.640625 -90.203125 C 27.148438 -88.253906 26.40625 -86.023438 26.40625 -83.515625 Z M 64.796875 -84.71875 L 64.796875 -3.203125 C 64.796875 -2.398438 64.59375 -1.664062 64.1875 -1 C 63.789062 -0.332031 63.140625 0 62.234375 0 L 46 0 C 45.195312 0 44.566406 -0.316406 44.109375 -0.953125 C 43.660156 -1.597656 43.4375 -2.347656 43.4375 -3.203125 L 43.4375 -26.40625 L 26.40625 -26.40625 L 26.40625 -3.125 C 26.40625 -2.269531 26.242188 -1.535156 25.921875 -0.921875 C 25.597656 -0.304688 24.957031 0 24 0 L 7.125 0 C 6.53125 0 6.035156 -0.304688 5.640625 -0.921875 C 5.242188 -1.535156 5.046875 -2.269531 5.046875 -3.125 L 5.046875 -84.71875 C 5.046875 -88.5625 5.84375 -92.160156 7.4375 -95.515625 C 9.039062 -98.878906 11.210938 -101.828125 13.953125 -104.359375 C 16.703125 -106.890625 19.875 -108.875 23.46875 -110.3125 C 27.070312 -111.757812 30.875 -112.484375 34.875 -112.484375 C 38.875 -112.484375 42.675781 -111.757812 46.28125 -110.3125 C 49.882812 -108.875 53.070312 -106.890625 55.84375 -104.359375 C 58.613281 -101.828125 60.796875 -98.878906 62.390625 -95.515625 C 63.992188 -92.160156 64.796875 -88.5625 64.796875 -84.71875 Z M 64.796875 -84.71875 "/></g></g></g><g fill="#81a969" fill-opacity="1"><g transform="translate(70.205362, 148.496812)"><g><path d="M 56.484375 -107.84375 L 56.484375 -94.234375 C 56.484375 -92.265625 55.765625 -91.28125 54.328125 -91.28125 L 27.046875 -91.28125 L 27.046875 -64 L 48.078125 -64 C 48.722656 -64 49.285156 -63.796875 49.765625 -63.390625 C 50.242188 -62.992188 50.484375 -62.265625 50.484375 -61.203125 L 50.484375 -47.59375 C 50.484375 -45.726562 49.679688 -44.796875 48.078125 -44.796875 L 27.046875 -44.796875 L 27.046875 -3.046875 C 27.046875 -1.015625 26.191406 0 24.484375 0 L 8.484375 0 C 6.671875 0 5.765625 -1.015625 5.765625 -3.046875 L 5.765625 -107.609375 C 5.765625 -109.679688 6.671875 -110.71875 8.484375 -110.71875 L 54.328125 -110.71875 C 55.765625 -110.71875 56.484375 -109.757812 56.484375 -107.84375 Z M 56.484375 -107.84375 "/></g></g></g><g fill="#81a969" fill-opacity="1"><g transform="translate(127.797154, 148.496812)"><g><path d="M 44.234375 -68.5625 L 44.234375 -81.84375 C 44.234375 -84.71875 43.394531 -87.007812 41.71875 -88.71875 C 40.039062 -90.425781 37.816406 -91.28125 35.046875 -91.28125 L 27.046875 -91.28125 L 27.046875 -59.515625 L 34.484375 -59.515625 C 37.679688 -59.515625 40.101562 -60.34375 41.75 -62 C 43.40625 -63.65625 44.234375 -65.84375 44.234375 -68.5625 Z M 62 -0.078125 L 47.28125 -0.078125 C 46.375 -0.078125 45.53125 -0.382812 44.75 -1 C 43.976562 -1.613281 43.59375 -2.507812 43.59375 -3.6875 L 43.59375 -20.40625 C 43.59375 -28.132812 42.207031 -33.742188 39.4375 -37.234375 C 36.664062 -40.734375 32.535156 -42.671875 27.046875 -43.046875 L 27.046875 -2.953125 C 27.046875 -0.984375 26.164062 0 24.40625 0 L 8.40625 0 C 6.644531 0 5.765625 -0.984375 5.765625 -2.953125 L 5.765625 -107.609375 C 5.765625 -109.679688 6.671875 -110.71875 8.484375 -110.71875 L 36.71875 -110.71875 C 40.820312 -110.71875 44.632812 -109.972656 48.15625 -108.484375 C 51.675781 -106.992188 54.742188 -104.914062 57.359375 -102.25 C 59.972656 -99.582031 62 -96.515625 63.4375 -93.046875 C 64.875 -89.578125 65.59375 -85.84375 65.59375 -81.84375 L 65.59375 -70.40625 C 65.59375 -65.65625 64.5 -61.613281 62.3125 -58.28125 C 60.132812 -54.945312 57.414062 -52.1875 54.15625 -50 C 57.78125 -46.957031 60.472656 -42.835938 62.234375 -37.640625 C 63.992188 -32.441406 64.875 -25.84375 64.875 -17.84375 L 64.875 -3.4375 C 64.875 -2.75 64.660156 -2.015625 64.234375 -1.234375 C 63.804688 -0.460938 63.0625 -0.078125 62 -0.078125 Z M 62 -0.078125 "/></g></g></g><g fill="#81a969" fill-opacity="1"><g transform="translate(197.707192, 148.496812)"><g><path d="M 27.046875 -107.609375 L 27.046875 -3.046875 C 27.046875 -1.015625 26.164062 0 24.40625 0 L 8.40625 0 C 6.644531 0 5.765625 -1.015625 5.765625 -3.046875 L 5.765625 -107.609375 C 5.765625 -109.679688 6.644531 -110.71875 8.40625 -110.71875 L 24.40625 -110.71875 C 26.164062 -110.71875 27.046875 -109.679688 27.046875 -107.609375 Z M 27.046875 -107.609375 "/></g></g></g><g fill="#81a969" fill-opacity="1"><g transform="translate(230.582507, 148.496812)"><g><path d="M 62.15625 -84.234375 L 62.15625 -76.484375 C 62.15625 -75.253906 61.992188 -74.359375 61.671875 -73.796875 C 61.359375 -73.242188 60.664062 -72.96875 59.59375 -72.96875 L 44.71875 -72.96875 C 43.757812 -72.96875 43.101562 -73.21875 42.75 -73.71875 C 42.40625 -74.226562 42.234375 -75.039062 42.234375 -76.15625 L 42.234375 -83.609375 C 42.234375 -85.203125 41.914062 -86.734375 41.28125 -88.203125 C 40.644531 -89.671875 39.710938 -90.867188 38.484375 -91.796875 C 37.253906 -92.734375 35.757812 -93.203125 34 -93.203125 C 31.382812 -93.203125 29.273438 -92.253906 27.671875 -90.359375 C 26.078125 -88.460938 25.28125 -86.265625 25.28125 -83.765625 L 25.28125 -27.203125 C 25.28125 -25.546875 25.625 -23.96875 26.3125 -22.46875 C 27.007812 -20.976562 28.007812 -19.78125 29.3125 -18.875 C 30.625 -17.96875 32.1875 -17.515625 34 -17.515625 C 36.9375 -17.515625 39.109375 -18.5 40.515625 -20.46875 C 41.929688 -22.445312 42.640625 -24.691406 42.640625 -27.203125 L 42.640625 -36.71875 C 42.640625 -37.945312 42.8125 -38.773438 43.15625 -39.203125 C 43.507812 -39.628906 44.140625 -39.84375 45.046875 -39.84375 L 60 -39.84375 C 60.90625 -39.84375 61.570312 -39.65625 62 -39.28125 C 62.425781 -38.90625 62.640625 -38.101562 62.640625 -36.875 L 62.640625 -26 C 62.640625 -20.238281 61.34375 -15.273438 58.75 -11.109375 C 56.164062 -6.953125 52.703125 -3.765625 48.359375 -1.546875 C 44.015625 0.660156 39.175781 1.765625 33.84375 1.765625 C 29.84375 1.765625 26.039062 1.140625 22.4375 -0.109375 C 18.84375 -1.367188 15.65625 -3.195312 12.875 -5.59375 C 10.101562 -8 7.929688 -10.921875 6.359375 -14.359375 C 4.785156 -17.796875 4 -21.675781 4 -26 L 4 -84.640625 C 4 -88.585938 4.734375 -92.253906 6.203125 -95.640625 C 7.671875 -99.023438 9.738281 -101.972656 12.40625 -104.484375 C 15.070312 -106.992188 18.21875 -108.941406 21.84375 -110.328125 C 25.46875 -111.710938 29.46875 -112.40625 33.84375 -112.40625 C 38.695312 -112.40625 42.910156 -111.601562 46.484375 -110 C 50.054688 -108.40625 53 -106.273438 55.3125 -103.609375 C 57.632812 -100.941406 59.351562 -97.925781 60.46875 -94.5625 C 61.59375 -91.195312 62.15625 -87.753906 62.15625 -84.234375 Z M 62.15625 -84.234375 "/></g></g></g><g fill="#81a969" fill-opacity="1"><g transform="translate(296.25315, 148.496812)"><g><path d="M 26.40625 -83.515625 L 26.40625 -45.046875 L 43.4375 -45.046875 L 43.4375 -83.515625 C 43.4375 -86.023438 42.6875 -88.253906 41.1875 -90.203125 C 39.695312 -92.148438 37.617188 -93.125 34.953125 -93.125 C 32.234375 -93.125 30.128906 -92.148438 28.640625 -90.203125 C 27.148438 -88.253906 26.40625 -86.023438 26.40625 -83.515625 Z M 64.796875 -84.71875 L 64.796875 -3.203125 C 64.796875 -2.398438 64.59375 -1.664062 64.1875 -1 C 63.789062 -0.332031 63.140625 0 62.234375 0 L 46 0 C 45.195312 0 44.566406 -0.316406 44.109375 -0.953125 C 43.660156 -1.597656 43.4375 -2.347656 43.4375 -3.203125 L 43.4375 -26.40625 L 26.40625 -26.40625 L 26.40625 -3.125 C 26.40625 -2.269531 26.242188 -1.535156 25.921875 -0.921875 C 25.597656 -0.304688 24.957031 0 24 0 L 7.125 0 C 6.53125 0 6.035156 -0.304688 5.640625 -0.921875 C 5.242188 -1.535156 5.046875 -2.269531 5.046875 -3.125 L 5.046875 -84.71875 C 5.046875 -88.5625 5.84375 -92.160156 7.4375 -95.515625 C 9.039062 -98.878906 11.210938 -101.828125 13.953125 -104.359375 C 16.703125 -106.890625 19.875 -108.875 23.46875 -110.3125 C 27.070312 -111.757812 30.875 -112.484375 34.875 -112.484375 C 38.875 -112.484375 42.675781 -111.757812 46.28125 -110.3125 C 49.882812 -108.875 53.070312 -106.890625 55.84375 -104.359375 C 58.613281 -101.828125 60.796875 -98.878906 62.390625 -95.515625 C 63.992188 -92.160156 64.796875 -88.5625 64.796875 -84.71875 Z M 64.796875 -84.71875 "/></g></g></g></g></g><g fill="#464a4e" fill-opacity="1"><g transform="translate(697.884165, 973.892584)"><g><path d="M 62.296875 0 L 46.046875 0 C 45.242188 0 44.613281 -0.316406 44.15625 -0.953125 C 43.707031 -1.597656 43.484375 -2.347656 43.484375 -3.203125 L 43.484375 -83.609375 C 43.484375 -86.109375 42.734375 -88.332031 41.234375 -90.28125 C 39.742188 -92.238281 37.664062 -93.21875 35 -93.21875 C 32.269531 -93.21875 30.15625 -92.238281 28.65625 -90.28125 C 27.164062 -88.332031 26.421875 -86.109375 26.421875 -83.609375 L 26.421875 -3.125 C 26.421875 -2.269531 26.25 -1.535156 25.90625 -0.921875 C 25.5625 -0.304688 24.9375 0 24.03125 0 L 7.125 0 C 6.539062 0 6.046875 -0.304688 5.640625 -0.921875 C 5.242188 -1.535156 5.046875 -2.269531 5.046875 -3.125 L 5.046875 -84.796875 C 5.046875 -88.640625 5.84375 -92.242188 7.4375 -95.609375 C 9.039062 -98.972656 11.21875 -101.921875 13.96875 -104.453125 C 16.71875 -106.992188 19.894531 -108.984375 23.5 -110.421875 C 27.101562 -111.867188 30.910156 -112.59375 34.921875 -112.59375 C 38.921875 -112.59375 42.722656 -111.867188 46.328125 -110.421875 C 49.929688 -108.984375 53.117188 -106.992188 55.890625 -104.453125 C 58.671875 -101.921875 60.859375 -98.972656 62.453125 -95.609375 C 64.054688 -92.242188 64.859375 -88.640625 64.859375 -84.796875 L 64.859375 -3.203125 C 64.859375 -2.398438 64.65625 -1.664062 64.25 -1 C 63.851562 -0.332031 63.203125 0 62.296875 0 Z M 62.296875 0 "/></g></g></g><g fill="#464a4e" fill-opacity="1"><g transform="translate(767.789032, 973.892584)"><g><path d="M 63.828125 -84.71875 L 63.828125 -26.03125 C 63.828125 -21.707031 63.023438 -17.820312 61.421875 -14.375 C 59.816406 -10.925781 57.625 -8 54.84375 -5.59375 C 52.070312 -3.195312 48.867188 -1.367188 45.234375 -0.109375 C 41.609375 1.140625 37.796875 1.765625 33.796875 1.765625 C 29.785156 1.765625 25.992188 1.113281 22.421875 -0.1875 C 18.847656 -1.5 15.671875 -3.359375 12.890625 -5.765625 C 10.117188 -8.171875 7.941406 -11.09375 6.359375 -14.53125 C 4.785156 -17.976562 4 -21.8125 4 -26.03125 L 4 -84.71875 C 4 -89.039062 4.785156 -92.925781 6.359375 -96.375 C 7.941406 -99.820312 10.117188 -102.742188 12.890625 -105.140625 C 15.671875 -107.546875 18.847656 -109.375 22.421875 -110.625 C 25.992188 -111.882812 29.785156 -112.515625 33.796875 -112.515625 C 37.796875 -112.515625 41.609375 -111.882812 45.234375 -110.625 C 48.867188 -109.375 52.070312 -107.546875 54.84375 -105.140625 C 57.625 -102.742188 59.816406 -99.835938 61.421875 -96.421875 C 63.023438 -93.003906 63.828125 -89.101562 63.828125 -84.71875 Z M 33.953125 -93.296875 C 31.234375 -93.296875 29.113281 -92.304688 27.59375 -90.328125 C 26.070312 -88.347656 25.3125 -86.078125 25.3125 -83.515625 L 25.3125 -27.140625 C 25.3125 -24.640625 26.039062 -22.410156 27.5 -20.453125 C 28.96875 -18.503906 31.066406 -17.53125 33.796875 -17.53125 C 36.566406 -17.53125 38.710938 -18.425781 40.234375 -20.21875 C 41.753906 -22.007812 42.515625 -24.160156 42.515625 -26.671875 L 42.515625 -83.515625 C 42.515625 -86.078125 41.753906 -88.347656 40.234375 -90.328125 C 38.710938 -92.304688 36.617188 -93.296875 33.953125 -93.296875 Z M 33.953125 -93.296875 "/></g></g></g><g fill="#464a4e" fill-opacity="1"><g transform="translate(835.611967, 973.892584)"><g><path d="M 103.296875 -107.625 L 103.296875 -26.03125 C 103.296875 -20.90625 102.160156 -16.242188 99.890625 -12.046875 C 97.628906 -7.859375 94.347656 -4.507812 90.046875 -2 C 85.753906 0.507812 80.5625 1.765625 74.46875 1.765625 C 69.882812 1.765625 65.945312 0.816406 62.65625 -1.078125 C 59.375 -2.972656 56.773438 -5.523438 54.859375 -8.734375 C 52.828125 -5.523438 50.140625 -2.972656 46.796875 -1.078125 C 43.460938 0.816406 39.503906 1.765625 34.921875 1.765625 C 28.566406 1.765625 23.160156 0.507812 18.703125 -2 C 14.242188 -4.507812 10.851562 -7.859375 8.53125 -12.046875 C 6.207031 -16.242188 5.046875 -20.90625 5.046875 -26.03125 L 5.046875 -107.703125 C 5.046875 -108.554688 5.242188 -109.289062 5.640625 -109.90625 C 6.046875 -110.519531 6.539062 -110.828125 7.125 -110.828125 L 24.03125 -110.828125 C 24.9375 -110.828125 25.5625 -110.519531 25.90625 -109.90625 C 26.25 -109.289062 26.421875 -108.554688 26.421875 -107.703125 L 26.421875 -27.234375 C 26.421875 -25.578125 26.753906 -24 27.421875 -22.5 C 28.085938 -21.007812 29.046875 -19.804688 30.296875 -18.890625 C 31.554688 -17.984375 33.066406 -17.53125 34.828125 -17.53125 C 37.660156 -17.53125 39.8125 -18.519531 41.28125 -20.5 C 42.75 -22.476562 43.484375 -24.722656 43.484375 -27.234375 L 43.484375 -107.703125 C 43.484375 -108.554688 43.695312 -109.289062 44.125 -109.90625 C 44.550781 -110.519531 45.054688 -110.828125 45.640625 -110.828125 L 62.46875 -110.828125 C 63.425781 -110.828125 64.0625 -110.519531 64.375 -109.90625 C 64.695312 -109.289062 64.859375 -108.554688 64.859375 -107.703125 L 64.859375 -27.234375 C 64.859375 -24.722656 65.59375 -22.476562 67.0625 -20.5 C 68.53125 -18.519531 70.65625 -17.53125 73.4375 -17.53125 C 76.257812 -17.53125 78.390625 -18.519531 79.828125 -20.5 C 81.273438 -22.476562 82 -24.722656 82 -27.234375 L 82 -107.625 C 82 -108.476562 82.210938 -109.222656 82.640625 -109.859375 C 83.066406 -110.503906 83.679688 -110.828125 84.484375 -110.828125 L 100.734375 -110.828125 C 101.640625 -110.828125 102.289062 -110.492188 102.6875 -109.828125 C 103.09375 -109.160156 103.296875 -108.425781 103.296875 -107.625 Z M 103.296875 -107.625 "/></g></g></g></svg>